<svg width="196" height="60" viewBox="0 0 196 60" fill="none" xmlns="http://www.w3.org/2000/svg">
<path d="M1.33948 4.86905C0.30719 3.95213 0.213665 2.37198 1.13059 1.33969C2.04751 0.307404 3.62765 0.213878 4.65994 1.1308L1.33948 4.86905ZM190.757 22.0117C192.132 21.878 193.354 22.8835 193.488 24.2577L195.668 46.6519C195.802 48.0261 194.796 49.2486 193.422 49.3823C192.048 49.5161 190.825 48.5106 190.691 47.1363L188.754 27.2305L168.848 29.1683C167.473 29.3021 166.251 28.2966 166.117 26.9223C165.983 25.5481 166.989 24.3256 168.363 24.1919L190.757 22.0117ZM4.65994 1.1308C52.2275 43.3822 92.2444 56.1331 123.25 54.7839C154.275 53.4338 176.699 37.9501 189.069 22.9118L192.93 26.0881C179.801 42.0499 156.119 58.3583 123.467 59.7792C90.7949 61.201 49.5617 47.7019 1.33948 4.86905L4.65994 1.1308Z" fill="#FFB81C"/>
</svg>
