<svg width="184" height="67" viewBox="0 0 184 67" fill="none" xmlns="http://www.w3.org/2000/svg">
<path d="M1.33971 24.8691C0.307419 23.9522 0.213893 22.3721 1.13081 21.3398C2.04773 20.3075 3.62788 20.2139 4.66017 21.1309L1.33971 24.8691ZM172.064 0.970979C173.344 0.453962 174.801 1.07269 175.318 2.35295L183.743 23.2159C184.26 24.4962 183.642 25.9532 182.361 26.4702C181.081 26.9872 179.624 26.3685 179.107 25.0882L171.618 6.54334L153.073 14.0325C151.793 14.5495 150.336 13.9308 149.819 12.6505C149.302 11.3702 149.92 9.91327 151.201 9.39625L172.064 0.970979ZM4.66017 21.1309C52.0872 63.2574 89.7494 66.9723 117.211 56.4054C144.95 45.7313 163.106 20.1907 170.699 2.31189L175.301 4.26629C167.393 22.8875 148.444 49.7444 119.006 61.0718C89.2901 72.5064 49.7024 67.8268 1.33971 24.8691L4.66017 21.1309Z" fill="#FFB81C"/>
</svg>
