<?xml version="1.0" encoding="UTF-8" standalone="no"?>
<!-- Created with Inkscape (http://www.inkscape.org/) -->

<svg
   xmlns:dc="http://purl.org/dc/elements/1.1/"
   xmlns:cc="http://creativecommons.org/ns#"
   xmlns:rdf="http://www.w3.org/1999/02/22-rdf-syntax-ns#"
   xmlns:svg="http://www.w3.org/2000/svg"
   xmlns="http://www.w3.org/2000/svg"
   xmlns:sodipodi="http://sodipodi.sourceforge.net/DTD/sodipodi-0.dtd"
   xmlns:inkscape="http://www.inkscape.org/namespaces/inkscape"
   width="313.64001"
   height="187.30014"
   viewBox="0 0 82.983916 49.556494"
   version="1.1"
   id="svg7109"
   inkscape:version="0.92.0 r15299"
   sodipodi:docname="argo ai.svg">
  <defs
     id="defs7103" />
  <sodipodi:namedview
     id="base"
     pagecolor="#ffffff"
     bordercolor="#666666"
     borderopacity="1.0"
     inkscape:pageopacity="0.0"
     inkscape:pageshadow="2"
     inkscape:zoom="2.8764144"
     inkscape:cx="155.82001"
     inkscape:cy="92.650073"
     inkscape:document-units="mm"
     inkscape:current-layer="layer1"
     showgrid="false"
     fit-margin-top="0"
     fit-margin-left="0"
     fit-margin-right="0"
     fit-margin-bottom="0"
     units="px"
     inkscape:window-width="1280"
     inkscape:window-height="744"
     inkscape:window-x="-4"
     inkscape:window-y="-4"
     inkscape:window-maximized="1" />
  <metadata
     id="metadata7106">
    <rdf:RDF>
      <cc:Work
         rdf:about="">
        <dc:format>image/svg+xml</dc:format>
        <dc:type
           rdf:resource="http://purl.org/dc/dcmitype/StillImage" />
        <dc:title></dc:title>
      </cc:Work>
    </rdf:RDF>
  </metadata>
  <g
     inkscape:label="Layer 1"
     inkscape:groupmode="layer"
     id="layer1"
     transform="translate(28.75416,-123.79051)">
    <g
       transform="translate(-177.27539,-405.31125)"
       id="g7085">
      <path
         id="path7042"
         d="m 204.1975,559.05788 a 1.4869583,1.4869583 0 0 0 1.48431,-1.48431 v -9.50384 a 1.0583333,1.0583333 0 0 0 -1.08215,-1.00541 h -28.27072 a 1.0583333,1.0583333 0 0 1 -1.08215,-1.00542 v -0.17198 0 c 0.10054,-5.50863 5.1144,-9.59379 11.29242,-9.59379 4.74662,0 8.80004,2.62202 10.47485,6.33412 a 0.52916666,0.52916666 0 0 0 0.4789,0.30163 h 6.84212 a 0.50006249,0.50006249 0 0 0 0.51329,-0.59796 c -1.97379,-7.42421 -9.41123,-12.96458 -18.30916,-12.96458 -10.40871,0 -18.84627,7.5512 -18.84627,16.86718 v 0 1.80975 0 4.54819 0 2.48708 0 2.4765 a 1.4869583,1.4869583 0 0 0 1.48431,1.48432 h 3.66183 a 1.4869583,1.4869583 0 0 0 1.48431,-1.48432 v -3.96875 a 1.0583333,1.0583333 0 0 1 1.08215,-1.00541 h 22.55573 a 1.0583333,1.0583333 0 0 1 1.08214,1.00541 v 1.48167 0 2.4765 a 1.4869583,1.4869583 0 0 0 1.48432,1.48431 h 3.66183 z"
         class="cls-1"
         inkscape:connector-curvature="0"
         style="fill:#f19f53;stroke-width:0.26458332" />
      <path
         id="path7044"
         d="m 167.64266,572.20238 h -14.45683 a 0.52916666,0.52916666 0 0 1 -0.55298,-0.51329 v -0.0847 0 c 0.0503,-2.81781 2.61409,-4.90538 5.77586,-4.90538 2.42623,0 4.49791,1.34144 5.35516,3.2385 a 0.26458333,0.26458333 0 0 0 0.24607,0.15346 h 3.51102 a 0.26458333,0.26458333 0 0 0 0.26458,-0.30691 c -1.00806,-3.79677 -4.81277,-6.61459 -9.3636,-6.61459 -5.32342,0 -9.63613,3.86027 -9.63613,8.62542 v 0 0.92604 0 2.32569 0 1.26735 0 1.26736 a 0.75935416,0.75935416 0 0 0 0.74348,0.75406 h 1.87325 a 0.75935416,0.75935416 0 0 0 0.77258,-0.75936 V 575.552 a 0.52916666,0.52916666 0 0 1 0.55298,-0.51329 h 11.53584 a 0.52916666,0.52916666 0 0 1 0.55297,0.51329 v 0.762 0 1.26736 a 0.75935416,0.75935416 0 0 0 0.75936,0.75935 h 1.87325 a 0.75935416,0.75935416 0 0 0 0.75935,-0.75935 v -4.86569 a 0.52916666,0.52916666 0 0 0 -0.56621,-0.51329 z"
         class="cls-2"
         inkscape:connector-curvature="0"
         style="fill:#007573;stroke-width:0.26458332" />
      <path
         id="path7046"
         d="m 211.74341,563.16157 c -4.86304,0 -8.80533,3.41047 -8.80533,7.61735 0,3.87614 3.34698,7.07496 7.67292,7.55385 a 0.73554166,0.73554166 0 0 0 0.81756,-0.73025 v -1.75683 a 0.73289582,0.73289582 0 0 0 -0.61913,-0.72231 c -2.32304,-0.37571 -4.08252,-2.14048 -4.08252,-4.25979 0,-2.38125 2.24367,-4.33388 5.01121,-4.33388 2.76754,0 5.01121,1.9394 5.01121,4.33388 0,2.01083 -1.5875,3.70416 -3.73327,4.191 a 0.72760416,0.72760416 0 0 0 -0.56092,0.71172 v 1.78065 a 0.73554166,0.73554166 0 0 0 0.84402,0.72496 c 4.11957,-0.63765 7.2443,-3.74915 7.2443,-7.49565 0.005,-4.20423 -3.937,-7.6147 -8.80005,-7.6147 z"
         class="cls-2"
         inkscape:connector-curvature="0"
         style="fill:#007573;stroke-width:0.26458332" />
      <path
         id="path7048"
         d="m 200.63091,570.22859 h -6.31825 a 0.365125,0.365125 0 0 0 -0.36512,0.36512 v 1.91558 a 0.365125,0.365125 0 0 0 0.36512,0.36513 h 2.94746 a 4.4529374,4.4529374 0 0 1 -0.87577,1.03981 l -0.037,0.0265 a 5.4266041,5.4266041 0 0 1 -3.43958,1.18004 c -2.86809,0 -5.17525,-2.08756 -4.99534,-4.60375 0.15346,-2.16958 2.20663,-3.93171 4.71488,-4.05077 a 5.5562499,5.5562499 0 0 1 3.2041,0.80433 0.56356249,0.56356249 0 0 0 0.29898,0.0873 h 3.47398 a 0.55562499,0.55562499 0 0 0 0.44186,-0.89959 c -1.64571,-2.0611 -4.43707,-3.38666 -7.58032,-3.28348 -4.45293,0.14553 -8.13064,3.21734 -8.43756,7.06438 -0.35719,4.45029 3.70417,8.15446 8.77888,8.15446 a 9.9800832,9.9800832 0 0 0 3.28083,-0.54769 9.0804999,9.0804999 0 0 0 2.71992,-1.50283 c 0.92075,-0.74613 1.76477,-1.65365 2.11666,-2.80723 a 7.4427291,7.4427291 0 0 0 0.18521,-2.86544 0.48154166,0.48154166 0 0 0 -0.4789,-0.44185 z"
         class="cls-2"
         inkscape:connector-curvature="0"
         style="fill:#007573;stroke-width:0.26458332" />
      <path
         id="path7050"
         d="m 182.23973,567.98227 c 0,-2.84956 -2.75432,-4.24656 -5.24934,-4.42912 -1.37318,-0.10054 -2.76754,-0.0344 -4.14337,-0.0344 h -5.46894 a 0.365125,0.365125 0 0 0 -0.36512,0.35984 c 0,0.20108 1.98437,2.38125 2.18545,2.38125 h 5.76528 c 0.0317,0 0,0 0.0317,0 0.91016,0.0291 2.75431,0.10583 3.19616,1.22502 a 2.0928541,2.0928541 0 0 1 -0.127,1.76477 c -0.70114,1.20121 -2.07169,1.16416 -3.25173,1.16416 h -2.794 a 0.54768749,0.54768749 0 0 0 -0.54768,0.54769 v 2.21721 a 0.54768749,0.54768749 0 0 0 0.54768,0.54769 h 1.5584 c 1.19592,0 2.20398,-0.037 3.10885,0.80698 a 3.1035625,3.1035625 0 0 1 0.57944,0.7567 l 0.31221,0.9869 c 0.47096,1.7436 0.0847,2.11667 0.93398,2.11667 h 3.03212 c 0.34925,0 0.61648,-0.17992 0.56886,-0.38629 0,-0.0371 -0.0185,-0.0767 -0.0291,-0.11907 h 0.0318 c 0,0 -0.0661,-1.02658 -0.0794,-1.11918 a 8.6386457,8.6386457 0 0 0 -0.21696,-1.12448 7.0484999,7.0484999 0 0 0 -0.94456,-2.11667 6.7521666,6.7521666 0 0 0 -0.68263,-0.889 2.38125,2.38125 0 0 0 -0.62971,-0.49477 c 1.8468,-1.00013 2.67759,-2.49502 2.67759,-4.1619 z"
         class="cls-2"
         inkscape:connector-curvature="0"
         style="fill:#007573;stroke-width:0.26458332" />
      <rect
         id="rect7052"
         ry="0.1984375"
         rx="0.1984375"
         height="4.2095208"
         width="1.0556875"
         y="568.97449"
         x="230.18488"
         class="cls-1"
         style="fill:#f19f53;stroke-width:0.26458332" />
      <path
         id="path7054"
         d="m 227.82743,569.17025 v 0 c -0.0556,-0.0317 -0.11112,-0.0635 -0.16933,-0.0926 a 3.1247291,3.1247291 0 0 0 -1.41817,-0.33602 c -1.5875,0 -2.85485,1.12977 -2.85485,2.52148 v 0 0.26458 0 0.67998 0 0.60854 a 0.3730625,0.3730625 0 0 0 0.38629,0.35454 h 0.23019 a 0.3730625,0.3730625 0 0 0 0.38629,-0.35454 v -0.4445 a 0.15610416,0.15610416 0 0 1 0.16404,-0.15081 h 2.51884 a 0.16139583,0.16139583 0 0 0 0.16668,-0.15346 v -0.52917 c 0,-0.0847 -0.0741,-0.10318 -0.16668,-0.10318 h -2.39977 a 0.15345833,0.15345833 0 0 1 -0.14817,-0.1323 v -0.0238 c 0.0159,-0.82285 0.77523,-1.48696 1.71185,-1.48696 a 1.8679583,1.8679583 0 0 1 0.84402,0.20109 1.4948958,1.4948958 0 0 1 0.8599,1.28587 v 0 0.0317 a 0.35454166,0.35454166 0 0 1 0,0.0556 v 0.87048 c 0,0 0,0.0714 0,0.14552 v 0.46038 a 0.34925,0.34925 0 0 0 0.35983,0.35454 h 0.4445 c 0.21167,0 0.29104,-0.15875 0.29104,-0.35454 v -1.56104 a 2.38125,2.38125 0 0 0 -1.2065,-2.11138 z"
         class="cls-1"
         inkscape:connector-curvature="0"
         style="fill:#f19f53;stroke-width:0.26458332" />
    </g>
  </g>
</svg>
