<?xml version="1.0" encoding="utf-8"?>
<!-- Generator: Adobe Illustrator 21.1.0, SVG Export Plug-In . SVG Version: 6.00 Build 0)  -->
<!DOCTYPE svg PUBLIC "-//W3C//DTD SVG 1.1//EN" "http://www.w3.org/Graphics/SVG/1.1/DTD/svg11.dtd">
<svg version="1.1" id="Layer_1" xmlns="http://www.w3.org/2000/svg" xmlns:xlink="http://www.w3.org/1999/xlink" x="0px" y="0px"
	 viewBox="0 0 2000 1000" style="enable-background:new 0 0 2000 1000;" xml:space="preserve" width="775" height="429">
<style type="text/css">
	.st0{fill:#FFFFFF;stroke:#000000;stroke-width:0.25;stroke-miterlimit:10;}
	.st1{fill:#0864FF;}
</style>
<path class="st0" d="M177.3,500.1l115.2,113.5v195.1c0,43.8,35.5,79.4,79.4,79.4h1453.9c43.8,0,79.4-35.5,79.4-79.4V191.4
	c0-43.8-35.5-79.4-79.4-79.4H371.9c-43.8,0-79.4,35.5-79.4,79.4v195.2L177.3,500.1z"/>
<g>
	<path class="st1" d="M729.7,273v150.1h-11.9c-3.8-28.8-10.7-51.7-20.7-68.8c-9.9-17.1-24.1-30.6-42.4-40.7c-18.4-10-37.4-15-57-15
		c-22.2,0-40.6,6.8-55.1,20.3s-21.8,29-21.8,46.2c0,13.2,4.6,25.3,13.8,36.2c13.2,16,44.7,37.3,94.4,64
		c40.5,21.8,68.2,38.5,83.1,50.1c14.8,11.6,26.3,25.3,34.2,41.1c8,15.8,12,32.3,12,49.6c0,32.9-12.8,61.2-38.2,85
		c-25.5,23.8-58.3,35.7-98.5,35.7c-12.6,0-24.4-1-35.5-2.9c-6.6-1.1-20.3-5-41.1-11.7s-34-10.1-39.5-10.1c-5.3,0-9.6,1.6-12.6,4.8
		c-3.1,3.2-5.4,9.8-6.9,19.8h-11.8V578.1h11.9c5.6,31.2,13,54.5,22.4,69.9c9.4,15.5,23.7,28.3,43.1,38.6
		c19.3,10.3,40.5,15.4,63.5,15.4c26.7,0,47.7-7,63.2-21.1s23.2-30.7,23.2-49.9c0-10.7-2.9-21.4-8.8-32.3c-5.9-10.9-15-21-27.4-30.4
		c-8.3-6.4-31-20-68.2-40.8c-37.1-20.8-63.5-37.4-79.2-49.8s-27.6-26-35.7-41c-8.1-14.9-12.2-31.4-12.2-49.3c0-31.2,12-58,35.9-80.5
		s54.3-33.8,91.2-33.8c23,0,47.5,5.7,73.3,17c12,5.3,20.4,8,25.3,8c5.6,0,10.1-1.6,13.6-5c3.5-3.3,6.3-10,8.5-20h11.9L729.7,273
		L729.7,273z"/>
	<path class="st1" d="M1149.1,273l9.9,147.6h-9.9c-13.3-44.2-32.1-76-56.7-95.4c-24.5-19.4-54-29.1-88.4-29.1
		c-28.8,0-54.8,7.3-78.1,21.9c-23.2,14.6-41.5,38-54.8,70s-20,71.8-20,119.4c0,39.3,6.3,73.3,18.9,102.1
		c12.6,28.8,31.5,50.9,56.8,66.3c25.3,15.4,54.1,23.1,86.6,23.1c28.2,0,53-6,74.6-18.1c21.5-12.1,45.2-36,71-71.9l9.9,6.4
		c-21.8,38.6-47.2,66.9-76.2,84.8c-29,17.9-63.5,26.9-103.4,26.9c-71.9,0-127.6-26.7-167.1-80c-29.5-39.7-44.2-86.4-44.2-140.2
		c0-43.3,9.7-83.1,29.1-119.4c19.4-36.3,46.1-64.4,80.2-84.4c34-20,71.2-29.9,111.6-29.9c31.4,0,62.3,7.7,92.8,23
		c9,4.7,15.4,7,19.2,7c5.8,0,10.8-2,15-6.1c5.5-5.8,9.5-13.8,11.9-24H1149.1z"/>
	<path class="st1" d="M1420.6,717l-167.7-365.3v290c0,26.7,2.9,43.3,8.7,49.9c7.9,9,20.4,13.4,37.5,13.4h15.4v12h-151.1v-11.8h15.4
		c18.3,0,31.4-5.5,39.1-16.6c4.7-6.8,7-22.4,7-46.7V358.2c0-19.2-2.1-33.1-6.4-41.6c-3-6.2-8.5-11.4-16.5-15.5
		c-8-4.2-20.9-6.2-38.6-6.2V283h122.7l157.5,339.6l155-339.6h122.9v11.8h-15c-18.6,0-31.7,5.6-39.4,16.7c-4.7,6.8-7.1,22.4-7.1,46.7
		v283.6c0,26.7,3,43.3,9,49.9c7.9,9,20.4,13.4,37.4,13.4h15V717h-184.3v-11.8h15.4c18.6,0,31.6-5.5,39-16.6
		c4.7-6.8,7.1-22.4,7.1-46.7V352l-167.4,365H1420.6z"/>
</g>
<!-- <g>
	<path class="st1" d="M1735.9,331.7c20.1,0,36.1,15.6,36.1,35.4c0,19.9-16,35.7-36.3,35.7s-36.5-15.8-36.5-35.7
		c0-19.9,16.2-35.4,36.5-35.4H1735.9z M1735.5,338.8c-15.3,0-27.2,12.7-27.2,28.3c0,15.8,11.9,28.3,27.7,28.3
		c15.3,0.2,27-12.5,27-28.1c0-15.8-11.7-28.5-27.2-28.5L1735.5,338.8L1735.5,338.8z M1730.1,385.5h-8.2V350
		c3.2-0.4,7.8-1.1,13.6-1.1c6.7,0,9.7,1.1,12.1,2.8c2.2,1.5,3.7,4.1,3.7,7.6c0,4.3-3.2,7.1-7.3,8.4v0.4c3.5,1.1,5.2,3.9,6.3,8.6
		c1.1,5.4,2,7.3,2.6,8.6h-8.7c-1.1-1.3-1.7-4.3-2.8-8.6c-0.6-3.7-2.8-5.4-7.3-5.4h-3.9L1730.1,385.5L1730.1,385.5z M1730.3,365.6
		h3.9c4.5,0,8.2-1.5,8.2-5.2c0-3.2-2.3-5.4-7.5-5.4c-2.2,0-3.7,0.2-4.5,0.4L1730.3,365.6L1730.3,365.6z"/>
</g> -->
</svg>
