<?xml version="1.0" encoding="utf-8"?>
<!-- Generator: Adobe Illustrator 21.1.0, SVG Export Plug-In . SVG Version: 6.00 Build 0)  -->
<!DOCTYPE svg PUBLIC "-//W3C//DTD SVG 1.1//EN" "http://www.w3.org/Graphics/SVG/1.1/DTD/svg11.dtd">
<svg version="1.1" id="Layer_1" xmlns="http://www.w3.org/2000/svg" xmlns:xlink="http://www.w3.org/1999/xlink" x="0px" y="0px"
	 viewBox="0 0 1100 900" style="enable-background:new 0 0 1100 900;" xml:space="preserve" width="400" height="400">
<style type="text/css">
	.st0{fill:#0864FF;}
</style>
<g>
	<path class="st0" d="M257.4,45.4V164H248c-3-22.8-8.5-40.9-16.3-54.4s-19-24.2-33.5-32.1s-29.5-11.9-45-11.9
		c-17.5,0-32,5.4-43.5,16.1s-17.2,22.9-17.2,36.5c0,10.5,3.6,20,10.9,28.6c10.5,12.6,35.3,29.5,74.6,50.6
		c32,17.2,53.9,30.4,65.6,39.6c11.7,9.2,20.7,20,27,32.5s9.5,25.5,9.5,39.2c0,26-10.1,48.3-30.2,67.1
		c-20.1,18.8-46.1,28.2-77.8,28.2c-9.9,0-19.3-0.8-28.1-2.3c-5.2-0.8-16-3.9-32.5-9.2c-16.4-5.3-26.8-8-31.2-8
		c-4.2,0-7.6,1.3-10,3.8c-2.5,2.5-4.3,7.8-5.4,15.7h-9.3V286.4h9.3c4.4,24.6,10.3,43,17.7,55.2s18.7,22.4,34,30.5s32,12.1,50.2,12.1
		c21.1,0,37.7-5.6,49.9-16.7c12.2-11.1,18.3-24.3,18.3-39.4c0-8.4-2.3-16.9-7-25.5c-4.6-8.6-11.8-16.6-21.6-24
		c-6.6-5.1-24.5-15.8-53.9-32.2c-29.3-16.4-50.2-29.5-62.6-39.3s-21.8-20.6-28.2-32.4s-9.6-24.8-9.6-38.9c0-24.6,9.4-45.8,28.3-63.6
		c19.1-17.9,43.1-26.8,72.3-26.8c18.2,0,37.5,4.5,57.9,13.4c9.4,4.2,16.1,6.3,20,6.3c4.4,0,8-1.3,10.7-3.9c2.8-2.6,5-7.9,6.7-15.8
		L257.4,45.4L257.4,45.4z"/>
	<path class="st0" d="M588.6,45.4l7.8,116.6h-7.8c-10.5-34.9-25.4-60-44.8-75.3s-42.7-23-69.8-23c-22.8,0-43.3,5.8-61.7,17.3
		c-18.4,11.5-32.8,30-43.4,55.2c-10.5,25.3-15.8,56.7-15.8,94.3c0,31,5,57.9,14.9,80.7c9.9,22.7,24.9,40.2,44.9,52.3
		c20,12.1,42.8,18.2,68.4,18.2c22.2,0,41.9-4.8,58.9-14.3s35.7-28.4,56.1-56.8l7.9,5.1c-17.2,30.5-37.2,52.8-60.2,67
		c-22.9,14.2-50.1,21.2-81.7,21.2c-56.8,0-100.8-21.1-132-63.2c-23.3-31.4-34.9-68.3-34.9-110.8c0-34.2,7.7-65.6,23-94.3
		s36.4-50.9,63.3-66.6c26.9-15.8,56.3-23.6,88.1-23.6c24.8,0,49.2,6.1,73.3,18.2c7.1,3.7,12.1,5.6,15.2,5.6c4.5,0,8.5-1.6,11.9-4.8
		c4.4-4.5,7.5-10.9,9.4-19L588.6,45.4L588.6,45.4z"/>
	<path class="st0" d="M803.1,396.1L670.6,107.6v229.1c0,21.1,2.3,34.2,6.8,39.4c6.2,7.1,16.1,10.6,29.6,10.6h12.1v9.4H599.8v-9.4
		h12.1c14.5,0,24.8-4.4,30.8-13.1c3.7-5.4,5.5-17.7,5.5-36.9v-224c0-15.2-1.7-26.1-5.1-32.9c-2.3-4.9-6.7-9-13-12.3
		s-16.5-4.9-30.5-4.9v-9.3h97.1l124.4,268.3L943.7,53.3h97.1v9.3h-11.9c-14.7,0-25,4.4-31.1,13.2c-3.7,5.4-5.6,17.7-5.6,36.9v224
		c0,21.1,2.4,34.2,7.1,39.4c6.2,7.1,16.1,10.6,29.6,10.6h11.9v9.4H895.1v-9.4h12.2c14.7,0,24.9-4.4,30.8-13.1
		c3.7-5.4,5.6-17.7,5.6-36.9V107.6L811.4,396.1H803.1z"/>
</g>
<g>
	<path class="st0" d="M125,461.3v37.3h-3c-0.9-7.2-2.6-12.8-5.2-17.1c-2.4-4.2-6-7.6-10.5-10.1s-9.3-3.8-14.2-3.8
		c-5.5,0-10.1,1.7-13.6,5c-3.6,3.3-5.4,7.2-5.4,11.5c0,3.3,1.1,6.3,3.4,9.1c3.3,3.9,11.1,9.3,23.5,15.9c10.1,5.4,17,9.6,20.6,12.5
		c3.7,2.9,6.5,6.3,8.5,10.2c1.9,3.9,3,8,3,12.4c0,8.1-3.2,15.2-9.5,21.1c-6.3,6-14.4,8.8-24.4,8.8c-3.1,0-6.1-0.2-8.8-0.7
		c-1.6-0.2-5-1.3-10.2-3c-5.2-1.6-8.5-2.5-9.9-2.5s-2.4,0.3-3.1,1.3c-0.8,0.8-1.4,2.4-1.7,4.9h-3v-37h3c1.4,7.8,3.2,13.5,5.6,17.4
		c2.3,3.9,5.8,7,10.7,9.6c4.8,2.5,10.1,3.8,15.8,3.8c6.6,0,11.9-1.7,15.7-5.3c3.9-3.4,5.7-7.6,5.7-12.4c0-2.6-0.7-5.3-2.2-8
		s-3.8-5.2-6.8-7.6c-2.1-1.6-7.7-5-17-10.2c-9.2-5.2-15.8-9.3-19.7-12.4c-3.9-3.1-6.9-6.4-8.8-10.2c-2.1-3.7-3-7.8-3-12.3
		c0-7.8,3-14.4,8.9-19.9c6-5.6,13.5-8.4,22.7-8.4c5.7,0,11.8,1.4,18.2,4.2c3,1.4,5,1.9,6.3,1.9c1.4,0,2.5-0.5,3.4-1.3
		s1.6-2.5,2.1-4.9L125,461.3L125,461.3z"/>
	<path class="st0" d="M281.7,463.7l1.1,25.3h-3c-0.6-4.5-1.4-7.7-2.4-9.5c-1.6-3.1-3.8-5.4-6.5-6.8c-2.8-1.5-6.3-2.2-10.8-2.2h-15.2
		V553c0,6.6,0.7,10.8,2.2,12.4c2.1,2.3,5.2,3.3,9.3,3.3h3.8v3h-45.7v-3h3.8c4.6,0,7.8-1.4,9.7-4.1c1.1-1.7,1.7-5.6,1.7-11.6v-82.5
		h-13c-5,0-8.6,0.3-10.8,1.1c-2.8,1-5.2,3-7.1,5.8c-1.9,2.9-3.1,6.8-3.6,11.6h-3l1.3-25.3L281.7,463.7L281.7,463.7z"/>
	<path class="st0" d="M367.4,469.7v42.6h23.7c6.2,0,10.3-0.9,12.4-2.8c2.8-2.4,4.2-6.8,4.6-13h3v37.6h-3c-0.8-5.3-1.5-8.6-2.2-10.1
		c-0.9-1.8-2.5-3.3-4.7-4.4c-2.2-1-5.5-1.6-10.1-1.6h-23.7v35.5c0,4.8,0.2,7.7,0.7,8.7s1.1,1.8,2.2,2.4c1,0.6,3.1,0.9,6.1,0.9h18.3
		c6.1,0,10.5-0.5,13.3-1.3s5.4-2.5,7.9-5c3.3-3.3,6.6-8.3,10.1-14.9h3.2l-9.3,27h-83.1v-2.9h3.8c2.5,0,4.9-0.6,7.2-1.8
		c1.7-0.8,2.9-2.2,3.4-3.8c0.6-1.7,0.9-5.2,0.9-10.4v-70.1c0-6.9-0.7-11-2.1-12.6c-1.9-2.1-5-3.2-9.5-3.2h-3.8v-3h83.1l1.1,23.6
		h-3.1c-1.1-5.7-2.4-9.6-3.7-11.7c-1.4-2.1-3.3-3.8-6-4.8c-2.1-0.8-5.8-1.1-11.2-1.1C397.1,469.7,367.4,469.7,367.4,469.7z"/>
	<path class="st0" d="M594.9,463.7v3c-3.8,0.7-6.6,1.9-8.6,3.7c-2.9,2.6-5.3,6.5-7.5,11.9l-37.6,91.8h-3l-40.5-93
		c-2.1-4.8-3.6-7.7-4.4-8.7c-1.3-1.6-3-3-4.9-3.9s-4.6-1.5-7.8-1.8v-3h44.1v3c-5,0.5-8.3,1.4-9.7,2.5c-1.5,1.3-2.2,2.8-2.2,4.7
		c0,2.6,1.3,6.8,3.7,12.4l27.4,63.3l25.4-62.5c2.5-6.1,3.8-10.4,3.8-12.8c0-1.5-0.8-3-2.3-4.5c-1.5-1.4-4.1-2.4-7.8-3
		c-0.2,0-0.7-0.1-1.4-0.2v-3h33.1v0.1H594.9z"/>
	<path class="st0" d="M677.4,469.7v42.6h23.7c6.2,0,10.3-0.9,12.4-2.8c2.8-2.4,4.2-6.8,4.6-13h2.9v37.6h-2.9
		c-0.8-5.3-1.5-8.6-2.3-10.1c-0.9-1.8-2.5-3.3-4.7-4.4c-2.2-1-5.5-1.6-10.1-1.6h-23.7v35.5c0,4.8,0.2,7.7,0.7,8.7s1.1,1.8,2.2,2.4
		c1,0.6,3.1,0.9,6.1,0.9h18.3c6.1,0,10.5-0.5,13.3-1.3s5.4-2.5,7.9-5c3.3-3.3,6.6-8.3,10.1-14.9h3.2l-9.3,27h-83.1v-2.9h3.8
		c2.5,0,4.9-0.6,7.2-1.8c1.7-0.8,2.9-2.2,3.4-3.8c0.6-1.7,0.9-5.2,0.9-10.4v-70.1c0-6.9-0.7-11-2.1-12.6c-1.9-2.1-5-3.2-9.5-3.2
		h-3.8v-3h83.1l1.1,23.6h-3.1c-1.1-5.7-2.3-9.6-3.7-11.7s-3.3-3.8-6-4.8c-2.1-0.8-5.8-1.1-11.2-1.1
		C707,469.7,677.4,469.7,677.4,469.7z"/>
	<path class="st0" d="M787.2,463.7h29.2l66,80.9v-62.2c0-6.6-0.7-10.8-2.2-12.4c-1.9-2.2-5-3.3-9.3-3.3h-3.8v-3h37.6v3h-3.9
		c-4.6,0-7.8,1.4-9.7,4.1c-1.1,1.7-1.7,5.6-1.7,11.6v91h-2.9l-71.2-86.9V553c0,6.6,0.7,10.8,2.2,12.4c2.1,2.3,5.2,3.3,9.3,3.3h3.8v3
		H793v-3h3.8c4.6,0,7.9-1.4,9.7-4.1c1.1-1.7,1.7-5.6,1.7-11.6v-75.1c-3.1-3.7-5.5-6.1-7.1-7.2s-4-2.3-7.1-3.2
		c-1.5-0.5-3.9-0.7-7-0.7v-3.1H787.2z"/>
	<path class="st0" d="M1028.2,461.3v37.3h-3c-0.9-7.2-2.6-12.8-5.2-17.1c-2.4-4.2-6-7.6-10.5-10.1c-4.6-2.5-9.3-3.8-14.2-3.8
		c-5.5,0-10.1,1.7-13.6,5c-3.6,3.3-5.4,7.2-5.4,11.5c0,3.3,1.1,6.3,3.4,9.1c3.3,3.9,11.1,9.3,23.5,15.9c10.1,5.4,17,9.6,20.6,12.5
		c3.7,2.9,6.5,6.3,8.5,10.2c1.9,3.9,3,8,3,12.4c0,8.1-3.2,15.2-9.5,21.1c-6.3,6-14.4,8.8-24.4,8.8c-3.1,0-6.1-0.2-8.8-0.7
		c-1.6-0.2-5-1.3-10.2-3c-5.2-1.6-8.5-2.5-9.9-2.5c-1.3,0-2.4,0.3-3.1,1.3c-0.8,0.8-1.4,2.4-1.7,4.9h-3v-37h3
		c1.4,7.8,3.2,13.5,5.6,17.4c2.3,3.9,6,7,10.7,9.6c4.8,2.5,10.1,3.8,15.8,3.8c6.6,0,11.9-1.7,15.7-5.3c3.9-3.4,5.7-7.6,5.7-12.4
		c0-2.6-0.7-5.3-2.2-8s-3.8-5.2-6.8-7.6c-2.1-1.6-7.7-5-17-10.2c-9.2-5.2-15.8-9.3-19.7-12.4s-6.9-6.4-8.8-10.2
		c-2.1-3.7-3-7.8-3-12.3c0-7.8,3-14.4,8.9-19.9c6-5.6,13.5-8.4,22.7-8.4c5.7,0,11.8,1.4,18.2,4.2c3,1.4,5,1.9,6.3,1.9
		c1.4,0,2.5-0.5,3.3-1.3c0.9-0.8,1.6-2.5,2.1-4.9L1028.2,461.3L1028.2,461.3z"/>
</g>
<g>
	<path class="st0" d="M154.4,617.8l2.6,38.9h-2.6c-3.4-11.6-8.5-19.9-14.9-25.1s-14.2-7.7-23.3-7.7c-7.6,0-14.4,1.9-20.5,5.7
		c-6.1,3.9-10.9,10-14.4,18.3c-3.6,8.4-5.3,18.9-5.3,31.4c0,10.3,1.6,19.3,4.9,26.9c3.3,7.6,8.3,13.4,14.9,17.4s14.2,6.1,22.8,6.1
		c7.5,0,14-1.6,19.6-4.7c5.6-3.2,11.9-9.5,18.7-18.9l2.6,1.7c-5.7,10.2-12.4,17.5-20.1,22.4c-7.7,4.7-16.7,7.1-27.2,7.1
		c-18.9,0-33.6-7-44-21.1c-7.8-10.4-11.6-22.7-11.6-36.9c0-11.3,2.5-21.9,7.7-31.4s12.1-17,21.1-22.2s18.8-7.9,29.3-7.9
		c8.3,0,16.4,2.1,24.4,6.1c2.4,1.3,4,1.8,5,1.8c1.5,0,2.9-0.6,4-1.6c1.5-1.5,2.5-3.7,3.1-6.3H154.4L154.4,617.8z"/>
	<path class="st0" d="M291.2,696.4H247l-7.8,18c-1.9,4.5-2.9,7.8-2.9,10c0,1.7,0.8,3.3,2.5,4.6c1.7,1.4,5.3,2.2,10.8,2.5v3.1h-36
		v-3.1c4.8-0.8,7.9-1.9,9.3-3.3c2.9-2.8,6.1-8.1,9.5-16.4l40.2-94h3l39.8,95c3.2,7.7,6.1,12.6,8.7,14.9c2.6,2.3,6.3,3.6,10.9,3.8
		v3.1h-45v-3.1c4.6-0.2,7.7-1,9.3-2.3c1.6-1.3,2.4-2.9,2.4-4.7c0-2.4-1.1-6.4-3.3-11.7L291.2,696.4z M288.8,690.1l-19.4-46.2
		l-19.8,46.2H288.8z"/>
	<path class="st0" d="M418.7,681.2v33.2c0,7.2,0.8,11.7,2.4,13.4c2.2,2.5,5.4,3.7,9.7,3.7h4.4v3.1h-48.9v-3.1h4.2
		c4.8,0,8.3-1.6,10.3-4.7c1.1-1.7,1.7-5.8,1.7-12.4v-73.8c0-7.2-0.8-11.7-2.3-13.4c-2.2-2.5-5.5-3.7-9.7-3.7h-4.2v-3.1h41.8
		c10.2,0,18.2,1,24.2,3.2c5.8,2.1,10.9,5.6,14.9,10.7s6.1,10.9,6.1,17.8c0,9.3-3.1,16.8-9.2,22.7c-6.2,5.8-14.8,8.7-26,8.7
		c-2.8,0-5.7-0.2-8.9-0.6C425.8,682.5,422.4,682,418.7,681.2z M418.7,676.4c3,0.6,5.6,1,7.9,1.3c2.3,0.2,4.2,0.5,6,0.5
		c5.8,0,10.9-2.3,15.1-6.8c4.2-4.6,6.3-10.4,6.3-17.5c0-4.9-1-9.5-3-13.8c-2.1-4.2-4.9-7.5-8.6-9.5c-3.7-2.1-7.9-3.2-12.6-3.2
		c-2.9,0-6.5,0.6-11,1.6L418.7,676.4L418.7,676.4L418.7,676.4z"/>
	<path class="st0" d="M579.2,731.5v3.1h-48.9v-3.1h4c4.7,0,8.1-1.4,10.3-4.1c1.4-1.8,2.1-6.1,2.1-13v-73.8c0-5.7-0.3-9.6-1.1-11.5
		c-0.6-1.4-1.7-2.6-3.4-3.7c-2.5-1.4-5-2.1-7.8-2.1h-4v-3.1h48.9v3.1h-4.1c-4.7,0-8,1.4-10.2,4.1c-1.4,1.8-2.1,6.1-2.1,13v73.8
		c0,5.7,0.3,9.6,1,11.5c0.6,1.4,1.7,2.6,3.6,3.7c2.4,1.4,4.9,2.1,7.7,2.1H579.2L579.2,731.5z"/>
	<path class="st0" d="M729.8,620.4l1.3,26.8h-3.2c-0.6-4.7-1.5-8.1-2.5-10.1c-1.7-3.2-4-5.6-7-7.2c-2.9-1.5-6.6-2.3-11.5-2.3h-16
		v87.2c0,7,0.8,11.3,2.3,13.2c2.2,2.4,5.4,3.6,9.9,3.6h4v3.1h-48.5v-3.2h4c4.8,0,8.3-1.5,10.3-4.4c1.3-1.8,1.8-5.8,1.8-12.3v-87.2
		h-13.8c-5.3,0-9.1,0.3-11.3,1.1c-2.9,1-5.4,3.1-7.5,6.2c-2.1,3-3.3,7.1-3.7,12.3h-3.2l1.4-26.8L729.8,620.4L729.8,620.4z"/>
</g>
<g>
	<path class="st0" d="M846.8,696.4h-44.2l-7.8,18c-1.9,4.5-2.9,7.8-2.9,10c0,1.7,0.8,3.3,2.5,4.6c1.7,1.4,5.3,2.2,10.8,2.5v3.1h-36
		v-3.1c4.8-0.8,7.8-1.9,9.3-3.3c2.9-2.8,6.1-8.1,9.5-16.4l40.2-94h3l39.8,95c3.2,7.7,6.1,12.6,8.7,14.9c2.6,2.3,6.3,3.6,10.9,3.8
		v3.1h-45v-3.1c4.6-0.2,7.7-1,9.2-2.3c1.6-1.3,2.4-2.9,2.4-4.7c0-2.4-1.1-6.4-3.3-11.7L846.8,696.4z M844.4,690.1L825,643.9
		l-19.8,46.2H844.4z"/>
	<path class="st0" d="M1038,703.1l2.8,0.6l-9.7,30.9h-88.5v-3.1h4.2c4.8,0,8.3-1.6,10.4-4.7c1.1-1.8,1.7-6,1.7-12.5v-73.7
		c0-7.1-0.8-11.6-2.3-13.4c-2.2-2.5-5.5-3.7-9.9-3.7h-4.2v-3.1h51.7v3.1c-6.1,0-10.3,0.6-12.7,1.7s-4.1,2.6-5,4.5
		c-0.9,1.8-1.4,6.1-1.4,12.8v71.8c0,4.7,0.5,7.9,1.4,9.6c0.7,1.1,1.7,2.1,3.1,2.6c1.4,0.6,5.7,0.8,13.2,0.8h8.4
		c8.7,0,14.9-0.7,18.5-1.9c3.6-1.3,6.8-3.6,9.7-6.9C1032.2,715.3,1035,710.2,1038,703.1z"/>
</g>
<g>
	<path class="st0" d="M94.8,852.6l-27.7-60.5v48c0,4.5,0.5,7.2,1.4,8.3c1.3,1.5,3.3,2.2,6.2,2.2h2.5v1.9h-25v-1.8h2.5
		c3.1,0,5.2-0.9,6.4-2.8c0.8-1.1,1.1-3.7,1.1-7.8v-46.9c0-3.2-0.3-5.5-1-6.9c-0.5-1-1.4-1.8-2.8-2.5c-1.4-0.7-3.4-1-6.4-1v-2.1h20.3
		l26,56.3l25.7-56.3h20.3v1.9h-2.5c-3.1,0-5.3,0.9-6.5,2.8c-0.8,1.1-1.1,3.7-1.1,7.8v46.9c0,4.5,0.5,7.2,1.5,8.3
		c1.3,1.5,3.3,2.2,6.2,2.2h2.5v1.9h-30.5v-1.8h2.5c3.1,0,5.3-0.9,6.4-2.8c0.8-1.1,1.1-3.7,1.1-7.8v-47.9l-27.7,60.5h-1.4
		C94.8,852.7,94.8,852.6,94.8,852.6z"/>
	<path class="st0" d="M219.3,828.6h-27.9l-4.8,11.3c-1.1,2.8-1.8,4.9-1.8,6.3c0,1.1,0.6,2.1,1.6,2.9c1,0.8,3.3,1.4,6.8,1.6v1.9
		h-22.6v-1.9c3-0.6,4.9-1.3,5.8-2.1c1.8-1.7,3.8-5.2,6-10.3l25.3-59.1h1.8l25,59.8c2.1,4.8,3.9,7.9,5.5,9.4c1.6,1.4,3.9,2.2,6.9,2.4
		v1.9h-28.3v-2.1c2.9-0.1,4.8-0.6,5.8-1.4c1-0.8,1.5-1.8,1.5-3c0-1.6-0.7-4-2.1-7.3L219.3,828.6z M217.9,824.7l-12.1-29l-12.5,29
		H217.9z"/>
	<path class="st0" d="M269.4,780.8h19.5l43.9,53.9v-41.4c0-4.5-0.5-7.2-1.5-8.3c-1.3-1.5-3.3-2.2-6.2-2.2h-2.5v-2.1h25v1.9H345
		c-3.1,0-5.2,0.9-6.4,2.8c-0.8,1.1-1.1,3.7-1.1,7.8v60.5h-1.9l-47.3-57.9V840c0,4.5,0.5,7.2,1.4,8.3c1.4,1.5,3.4,2.2,6.2,2.2h2.5
		v1.9h-25v-1.8h2.5c3.1,0,5.3-0.9,6.5-2.8c0.8-1.1,1.1-3.7,1.1-7.8v-50c-2.1-2.4-3.7-4-4.7-4.8s-2.6-1.5-4.7-2.2
		c-1-0.3-2.6-0.5-4.7-0.5V780.8z"/>
	<path class="st0" d="M421.7,828.6h-27.9l-4.8,11.3c-1.3,2.8-1.8,4.9-1.8,6.3c0,1.1,0.6,2.1,1.6,2.9c1,0.8,3.3,1.4,6.8,1.6v1.9
		h-22.7v-1.9c3-0.6,4.9-1.3,5.8-2.1c1.8-1.7,3.8-5.2,6-10.3l25.3-59.1h1.8l25,59.8c2.1,4.8,3.8,7.9,5.5,9.4c1.6,1.4,3.9,2.2,6.9,2.4
		v1.9h-28.3v-2.1c2.9-0.1,4.8-0.6,5.8-1.4c1-0.8,1.5-1.8,1.5-3c0-1.6-0.7-4-2.1-7.3L421.7,828.6z M420.2,824.7l-12.1-29l-12.5,29
		H420.2z"/>
	<path class="st0" d="M539.8,779.2l1.8,22.7h-1.8c-1.8-5.6-4.2-9.9-7.2-12.7c-4.2-4.1-9.7-6.2-16.5-6.2c-9.2,0-16.2,3.7-20.9,10.9
		c-4,6.1-6,13.4-6,21.9c0,6.9,1.4,13.1,4,18.8c2.6,5.6,6.1,9.7,10.4,12.4c4.2,2.6,8.7,4,13.2,4c2.6,0,5.3-0.3,7.7-1
		c2.5-0.7,4.8-1.6,7.1-3v-20.7c0-3.6-0.2-6-0.8-7.1s-1.4-1.9-2.5-2.5s-3.2-0.9-6.1-0.9v-2.1h27.9v2.1h-1.4c-2.8,0-4.7,0.9-5.6,2.8
		c-0.7,1.3-1,3.9-1,7.7v22c-4,2.2-8,3.8-12,4.8c-3.9,1-8.4,1.5-13.2,1.5c-13.9,0-24.4-4.5-31.6-13.3c-5.4-6.6-8.1-14.3-8.1-23.2
		c0-6.3,1.5-12.4,4.6-18.2c3.6-6.9,8.6-12.1,14.8-15.9c5.3-3.1,11.5-4.6,18.7-4.6c2.6,0,5,0.2,7.1,0.7c2.2,0.3,5.2,1.4,9.1,2.8
		c1.9,0.8,3.3,1.1,4,1.1s1.3-0.3,1.7-0.9c0.5-0.7,0.8-1.8,0.9-3.7L539.8,779.2L539.8,779.2z"/>
	<path class="st0" d="M597,784.7v28.4h15.8c4.1,0,6.9-0.7,8.3-1.8c1.8-1.6,2.9-4.5,3.1-8.6h1.9v25h-1.9c-0.5-3.4-1-5.7-1.5-6.8
		c-0.7-1.3-1.7-2.2-3.1-2.9c-1.5-0.7-3.7-1-6.6-1h-15.8v23.6c0,3.2,0.1,5.2,0.5,5.8c0.2,0.7,0.8,1.3,1.5,1.6c0.7,0.5,2.1,0.6,4,0.6
		h12.1c4,0,7-0.2,8.8-0.8s3.6-1.7,5.3-3.3c2.2-2.2,4.5-5.5,6.8-9.9h2.1l-6.2,18h-55.4v-1.9h2.5c1.7,0,3.3-0.5,4.8-1.3
		c1.1-0.6,1.9-1.4,2.3-2.5c0.5-1.1,0.7-3.4,0.7-6.9v-46.6c0-4.6-0.5-7.3-1.4-8.5c-1.3-1.4-3.4-2.2-6.4-2.2h-2.5v-1.9h55.4l0.8,15.7
		h-2.1c-0.7-3.8-1.6-6.4-2.4-7.8c-0.9-1.4-2.2-2.5-4-3.2c-1.4-0.6-3.9-0.8-7.5-0.8L597,784.7L597,784.7z"/>
	<path class="st0" d="M707.8,852.6l-27.7-60.4v48c0,4.5,0.5,7.2,1.5,8.3c1.3,1.5,3.3,2.2,6.2,2.2h2.5v1.9h-25v-1.9h2.5
		c3.1,0,5.2-0.9,6.4-2.8c0.8-1.1,1.1-3.7,1.1-7.8v-46.9c0-3.2-0.3-5.5-1-6.9c-0.5-1-1.4-1.8-2.8-2.5c-1.4-0.7-3.4-1-6.4-1v-2.1h20.3
		l26,56.3l25.7-56.3h20.3v1.9h-2.5c-3.1,0-5.3,0.9-6.5,2.8c-0.8,1.1-1.1,3.7-1.1,7.8v46.9c0,4.5,0.5,7.2,1.5,8.3
		c1.3,1.5,3.4,2.2,6.2,2.2h2.5v1.9H727v-1.8h2.5c3.1,0,5.3-0.9,6.5-2.8c0.8-1.1,1.1-3.7,1.1-7.8v-47.9l-27.7,60.5h-1.6V852.6z"/>
	<path class="st0" d="M805.3,784.7v28.4h15.8c4.1,0,6.9-0.7,8.3-1.8c1.8-1.6,2.9-4.5,3.1-8.6h1.9v25h-1.9c-0.5-3.4-1-5.7-1.5-6.8
		c-0.6-1.3-1.7-2.2-3.1-2.9c-1.5-0.7-3.7-1-6.6-1h-15.8v23.6c0,3.2,0.1,5.2,0.3,5.8c0.3,0.7,0.8,1.3,1.5,1.6c0.7,0.5,2.1,0.6,4,0.6
		h12.1c4,0,7-0.2,8.8-0.8s3.7-1.7,5.3-3.3c2.2-2.2,4.5-5.5,6.8-9.9h2.2l-6.2,18h-55.4v-1.9h2.5c1.7,0,3.3-0.5,4.8-1.3
		c1.1-0.6,1.8-1.4,2.3-2.5s0.6-3.4,0.6-6.9v-46.6c0-4.6-0.5-7.3-1.4-8.5c-1.3-1.4-3.4-2.2-6.4-2.2h-2.5v-1.9h55.4l0.8,15.7h-2.1
		c-0.7-3.8-1.6-6.4-2.5-7.8c-0.9-1.4-2.2-2.5-4-3.2c-1.4-0.6-3.9-0.8-7.5-0.8L805.3,784.7L805.3,784.7z"/>
	<path class="st0" d="M870.3,780.8h19.5l43.9,53.9v-41.4c0-4.5-0.6-7.2-1.5-8.3c-1.3-1.5-3.4-2.2-6.2-2.2h-2.5v-2.1h25v1.9H946
		c-3,0-5.2,0.9-6.4,2.8c-0.8,1.1-1.1,3.7-1.1,7.8v60.5h-1.9l-47.3-57.9V840c0,4.5,0.5,7.2,1.4,8.3c1.4,1.5,3.4,2.2,6.2,2.2h2.5v1.9
		h-25v-1.8h2.5c3.1,0,5.3-0.9,6.5-2.8c0.8-1.1,1.1-3.7,1.1-7.8v-50c-2.1-2.4-3.7-4-4.7-4.8c-1.1-0.8-2.6-1.5-4.7-2.2
		c-1-0.3-2.5-0.5-4.7-0.5L870.3,780.8L870.3,780.8z"/>
	<path class="st0" d="M1035.7,780.8l0.8,16.8h-2.1c-0.3-3-0.9-5.2-1.6-6.4c-1-2.1-2.5-3.6-4.4-4.6c-1.8-0.9-4.2-1.5-7.2-1.5h-10.1
		V840c0,4.5,0.5,7.2,1.5,8.3c1.4,1.5,3.4,2.2,6.2,2.2h2.5v1.9h-30.5v-1.7h2.5c3,0,5.2-0.9,6.4-2.8c0.8-1.1,1.1-3.7,1.1-7.8v-54.8
		h-8.6c-3.3,0-5.7,0.2-7.1,0.7c-1.8,0.7-3.4,1.9-4.7,3.9c-1.4,1.9-2.1,4.5-2.3,7.8h-1.9l0.8-16.8h58.6L1035.7,780.8L1035.7,780.8z"
		/>
</g>
</svg>
